<?xml version="1.0" encoding="utf-8"?>
<!-- Generator: Adobe Illustrator 25.0.0, SVG Export Plug-In . SVG Version: 6.00 Build 0)  -->
<svg version="1.1" id="图层_1" xmlns="http://www.w3.org/2000/svg" xmlns:xlink="http://www.w3.org/1999/xlink" x="0px" y="0px"
	 viewBox="0 0 30 30" style="enable-background:new 0 0 30 30;" xml:space="preserve">
<style type="text/css">
	.st0{fill:url(#SVGID_1_);}
	.st1{fill:#FFFFFF;}
</style>
<g id="图层_3">
	
		<linearGradient id="SVGID_1_" gradientUnits="userSpaceOnUse" x1="28.5407" y1="30.522" x2="1.478" y2="3.4593" gradientTransform="matrix(1 0 0 -1 0 32)">
		<stop  offset="0" style="stop-color:#3C3C3C"/>
		<stop  offset="2.697517e-03" style="stop-color:#333399"/>
		<stop  offset="1" style="stop-color:#191970"/>
	</linearGradient>
	<path class="st0" d="M25,30H5c-2.7,0-5-2.2-5-5V5c0-2.7,2.2-5,5-5h20c2.7,0,5,2.2,5,5v20C30,27.8,27.8,30,25,30z"/>
	<g>
		<g>
			<path class="st1" d="M4,17.5c0.5-0.4,1-0.7,1.5-1.1l-0.1,0.1c0.5-0.3,1-0.6,1.6-0.9c-0.1-0.1-0.2-0.2-0.3-0.3
				c0.1,0.3,0.2,0.6,0.3,0.9c0.1,0.2,0.2,0.5,0.4,0.7c0.4,0.3,0.9-0.5,1.1-0.7c0.4-0.5,0.6-1,0.9-1.5c0-0.1,0.1-0.2,0.1-0.3
				c0,0,0.1-0.2,0-0.1c0.1-0.2,0.2-0.4,0.4-0.5l-0.1,0.1c0.4-0.2,0.7-0.1,1,0.1l-0.1-0.1c0.7,0.4,1.2,1.1,1.6,1.8
				c0.5,0.9,0.7-0.6,0.7-0.9c0.1-0.6,0.1-1.3,0-1.9c0-0.5-0.1-1-0.3-1.5c-0.3-0.7-0.7-1.3-1.3-1.9c-0.5-0.5-1.1-1-1.8-0.6
				c-0.5,0.3-0.7,1-0.9,1.5c-0.3,0.6-0.8,1.2-1.3,1.7L7.5,12c-0.1,0-0.1,0-0.2,0l0.1,0.1c-0.1-0.1-0.1,0,0,0
				c-0.1-0.1-0.1-0.3-0.1-0.4C7.2,11.5,7.1,11.2,7,11c0-0.2-0.1-0.3-0.3-0.3c-1.1,0.6-2.2,1.3-3.2,2.1c-0.2,0.2-0.3,0.9-0.3,1.1
				c-0.1,0.6-0.1,1.3,0,1.9C3.3,16,3.5,17.9,4,17.5L4,17.5z"/>
		</g>
	</g>
</g>
<g id="Layer_1">
	<g>
		<g>
			<g>
				<g>
					<path class="st1" d="M21.5,23.1c0,0.4-0.2,0.8-0.6,1.2s-0.8,0.6-1.3,0.6s-0.9-0.1-1.3-0.6c-0.4-0.4-0.5-0.8-0.5-1.3
						s0.1-0.9,0.5-1.3s0.8-0.5,1.3-0.5c0.3,0,0.6,0.1,0.8,0.2v-3.7h3v1.4h-1.9"/>
				</g>
			</g>
		</g>
	</g>
	<g>
		<g>
			<g>
				<path class="st1" d="M15.4,27.9c-3.6,0-6.7-1.3-9.2-3.8s-3.8-5.6-3.8-9.2s1.3-6.7,3.8-9.2s5.6-3.8,9.2-3.8l0,0
					c3.6,0,6.7,1.3,9.2,3.8s3.8,5.6,3.8,9.2s-1.3,6.7-3.8,9.2S19,27.9,15.4,27.9z M15.4,2.9c-3.3,0-6.2,1.2-8.5,3.5
					s-3.5,5.2-3.5,8.5s1.2,6.1,3.5,8.5c2.3,2.3,5.2,3.5,8.5,3.5s6.1-1.2,8.5-3.5c2.3-2.3,3.5-5.2,3.5-8.5s-1.2-6.2-3.5-8.5
					S18.7,2.9,15.4,2.9z"/>
			</g>
			<g>
				<path class="st1" d="M15.4,18.4c-1,0-1.8-0.3-2.5-1c0,0,0,0-0.1-0.1c-0.7-0.7-1-1.5-1-2.5s0.4-1.8,1-2.5s1.5-1,2.5-1
					s1.8,0.3,2.5,1s1.1,1.5,1.1,2.5s-0.3,1.8-1,2.5C17.2,18.1,16.4,18.4,15.4,18.4z M15.4,13.4c-0.4,0-0.8,0.1-1.1,0.4
					c-0.3,0.3-0.5,0.7-0.5,1.1c0,0.5,0.1,0.8,0.4,1.1c0.3,0.3,0.7,0.4,1.1,0.4c0.4,0,0.8-0.1,1.1-0.5c0.3-0.3,0.4-0.6,0.4-1.1
					c0-0.4-0.1-0.7-0.4-1l0,0C16.2,13.5,15.8,13.4,15.4,13.4z"/>
			</g>
		</g>
	</g>
	<path class="st1" d="M25.9,16.1c-0.3,0-0.5-0.2-0.5-0.5c0-2.5-0.9-4.6-2.6-6.4l-0.1-0.1c-1.7-1.7-3.9-2.6-6.3-2.6
		c-0.3,0-0.5-0.2-0.5-0.5s0.2-0.5,0.5-0.5l0,0c2.7,0,5.1,1,7,2.9l0,0c1.9,1.9,2.9,4.3,2.9,7.1C26.4,15.9,26.2,16.1,25.9,16.1z"/>
</g>
<g id="图层_2_1_">
</g>
</svg>
